<?xml version="1.0" encoding="UTF-8"?>
<svg id="star" xmlns="http://www.w3.org/2000/svg" viewBox="0 0 64 64">
  <defs>
    <style>
      .cls-1 {
        fill: none;
        stroke: #000;
        stroke-linecap: round;
        stroke-miterlimit: 10;
        stroke-width: 2px;
      }
    </style>
  </defs>
  <path class="cls-1" d="m30.15,31.82c0-.99.02-2.41.1-4.11.32-7.23,1.36-12.82,1.93-15.56.38-1.82.93-4.21,1.73-6.99"/>
  <path class="cls-1" d="m30.2,32.06c3.23-.45,6.66-.81,10.26-1.04,7.56-.49,14.52-.34,20.71.15"/>
  <path class="cls-1" d="m30.15,31.82c-2.3-.41-4.63-.81-6.99-1.19-6.49-1.06-12.86-1.96-19.07-2.72"/>
  <path class="cls-1" d="m30.2,32.06c-2.38,2.24-5.36,5.46-7.88,8.62-4.4,5.52-7.45,10.9-9.56,15.41"/>
  <path class="cls-1" d="m30.2,32.06c2.83,3.85,5.78,8.27,8.67,13.28,2.95,5.1,5.34,9.97,7.28,14.42"/>
</svg>